# xmcd
#
# Track frame offsets: 
#        150
#        21603
#        41106
#        57047
#        82808
#        104321
#        131771
#        160939
#        190785
#        224821
#
# Disc length: 3228 seconds
#
# Revision: 0
# Processed by: cddbd v1.5.2PL0 Copyright (c) Steve Scherf et al.
# Submitted via: ExactAudioCopy v1.3
#
DISCID=8d0c9a0a
DTITLE=Juniper Inc. - Juniper Inc.
DYEAR=2017
DGENRE=Blues Rock
TTITLE0=Electric Voodoo
TTITLE1=Sundown
TTITLE2=Trouble On High Heels
TTITLE3=Sunday Driver
TTITLE4=Live To Love
TTITLE5=Get Up
TTITLE6=Something Real
TTITLE7=Cyclotron
TTITLE8=99 Blues
TTITLE9=One Trick Pony
EXTD=
EXTT0=
EXTT1=
EXTT2=
EXTT3=
EXTT4=
EXTT5=
EXTT6=
EXTT7=
EXTT8=
EXTT9=
PLAYORDER=
